/* XPM */
static char *_2ea8a3c5b174f6a81b745dcfd0e3ebfbCTxBspsGLaUA6i4[] = {
/* columns rows colors chars-per-pixel */
"48 48 139 2 ",
"   c None",
".  c #030104",
"X  c #080601",
"o  c #060209",
"O  c #0A030B",
"+  c #0A0017",
"@  c #11051D",
"#  c #161511",
"$  c #191513",
"%  c #171814",
"&  c #1D1B16",
"*  c #1E1F1A",
"=  c #221B17",
"-  c #231F19",
";  c #26221A",
":  c #28231D",
">  c #31271C",
",  c #332A1E",
"<  c #3D2C1F",
"1  c #0E0023",
"2  c #0D002C",
"3  c #1B0023",
"4  c #13022B",
"5  c #1E002D",
"6  c #170335",
"7  c #1A0834",
"8  c #15003B",
"9  c #220027",
"0  c #22002A",
"q  c #230030",
"w  c #362E21",
"e  c #3D2D23",
"r  c #393123",
"t  c #443224",
"y  c #45392B",
"u  c #4A3A2B",
"i  c #493E30",
"p  c #52412F",
"a  c #4F4235",
"s  c #624D3C",
"d  c #795A3F",
"f  c #120047",
"g  c #1B0244",
"h  c #1D0054",
"j  c #210C48",
"k  c #210053",
"l  c #3C025E",
"z  c #3E344B",
"x  c #490050",
"c  c #433B40",
"v  c #440064",
"b  c #46006D",
"n  c #4B006D",
"m  c #460C62",
"M  c #460071",
"N  c #4A0073",
"B  c #4E0179",
"V  c #500071",
"C  c #52007D",
"Z  c #54097C",
"A  c #705C4B",
"S  c #7A6147",
"D  c #7C6756",
"F  c #7C6856",
"G  c #5B5E64",
"H  c #5A5A6F",
"J  c #5C5C70",
"K  c #66656E",
"L  c #616374",
"P  c #836B56",
"I  c #866D5A",
"U  c #87725C",
"Y  c #89715D",
"T  c #91755B",
"R  c #90795D",
"E  c #927661",
"W  c #957960",
"Q  c #A78B6D",
"!  c #5E2F94",
"~  c #6D1DAD",
"^  c #7B30B5",
"/  c #5E5B81",
"(  c #615D82",
")  c #705AAD",
"_  c #7F42BC",
"`  c #7B67C3",
"'  c #8133BD",
"]  c #8465AF",
"[  c #846AAC",
"{  c #8867B2",
"}  c #856CB6",
"|  c #8A6DB3",
" . c #856FBC",
".. c #8B6FB9",
"X. c #8771B5",
"o. c #8971B6",
"O. c #8A73BB",
"+. c #9372B9",
"@. c #8642C1",
"#. c #935DC8",
"$. c #8A75C6",
"%. c #927BC4",
"&. c #C3A583",
"*. c #9A84CE",
"=. c #A488D5",
"-. c #B3A0D8",
";. c #B8A4D9",
":. c #BEAFDF",
">. c #BEB0DE",
",. c #A499E4",
"<. c #B59DE1",
"1. c #B3A4E3",
"2. c #BEA8E5",
"3. c #B6ABEA",
"4. c #ADA4F3",
"5. c #C0B4DD",
"6. c #C2B8DD",
"7. c #C4B3E4",
"8. c #C8B8E2",
"9. c #C8B4EE",
"0. c #C7B8F8",
"q. c #FDE6C4",
"w. c #FDE8C9",
"e. c #FEEDD5",
"r. c #CCC5F2",
"t. c #D9D6FB",
"y. c #D2DBF8",
"u. c #E0E3EF",
"i. c #E7E8EC",
"p. c #FBF2E7",
"a. c #E6E5F2",
"s. c #E3E1F5",
"d. c #E2E2F3",
"f. c #E8E7F1",
"g. c #E3E1F9",
"h. c #F8E8FF",
"j. c #F8E8FF",
"k. c white",
"l. c #FAFDFF",
/* pixels */
"                                                                                                ",
"                                                                                                ",
"                                                                                                ",
"                                                                                                ",
"                                                                                                ",
"                                        w w , > > , , w                                         ",
"                                      $ y T T q.w.E W u #                                       ",
"                                      = u p R e.e.A a i &                                       ",
"                                        . . . . . . . .                                         ",
"                                      % e . i k.z z . . .                                       ",
"                                      & s R T p.&.D P t .                                       ",
"                                        . u D R S : : . < < t                                   ",
"                                        . u P p.Q d < . e I I ;                                 ",
"                                        . . . . . . . .   . F I *                               ",
"                                      G K g.s.k.a.a.f.( H   # Y -                               ",
"                                      G s.d.k.d.d.a.a.a.L   # U ;                               ",
"                                    H s.d.d.k.d.d.d.a.a.(   = Y -                               ",
"                                  J H d.d.d.k.d.d.d.a.d.a./ r y ;                               ",
"                                  J d.u.a.~ h.h k k d.d.a.i.. .                                 ",
"                                . d.8 8 8 h.#.1 1 2 2 f g ! .                                   ",
"                                . . n n b h.Z n b b n n n 4 4 +                                 ",
"                              . b n n n _ h.@.M b b M M M N C B .                               ",
"                              . 0 n n V ^ ' M M M M M M M B . 0 .                               ",
"                            . 0 0 o N V V n N N N B B B B . . 0 0 .                             ",
"                            . 0 . o . l l v . . . . . . . . . . 0 .                             ",
"                          . 0 0 . . . o . 4.h.h.;.-.[ . . . . . 0 0 o                           ",
"                          o 0 . . . . O h.h.1.o.o.X.9.7.. . . . o 0 .                           ",
"                          o 0 . . . o 1.h.3.3.o.o.O.O.7.[ . . . o 9 .                           ",
"                          o 0 . . o o 1.h.[ | X.o.o.O.7.] . o o o 0 .                           ",
"                          . 0 0 . o o 1.h.h.h.o.| >.:.7.| . . o 0 0 .                           ",
"                            . 9 . o { t.@ ) h...o.8.[ . ..| . o 0 .                             ",
"                            . 9 . . { g.8 g j h.h.. . . +.| . . 9 .                             ",
"                            . 0 0 . { h.4 6 7 l.0.. . . 7.| . 0 9 .                             ",
"                            . 0 0 . . h.h.h.h.` . 7.5.5.6.. . 0 0 .                             ",
"                              . 0 . . ] } O.O.. . ......... o 0 .                               ",
"                              . 0 . . . . O.O.O.O.O.O.. . . o 0 .                               ",
"                              . 0 0 . . . O.h.h.} r.%.. . o 0 0 .                               ",
"                              . 0 0 . . . *.h.4.| %. .. . . 0 0 .                               ",
"                                . 0 . . . <.y.,.$.*.=.. . . 0 .                                 ",
"                                . 0 3 . . . h.0.<.2.. . . 0 0 .                                 ",
"                                  O x 5 0 . . . . . . . 0 0 X                                   ",
"                                    . O q m 3 3 3 3 3 3 . o                                     ",
"                                        . . . . . . . o                                         ",
"                                                                                                ",
"                                                                                                ",
"                                                                                                ",
"                                                                                                ",
"                                                                                                "
};
