/* XPM */
static char *_470ae08f9594220cbabdb9aef51c20eu9hUyuIbf1fMmBdb[] = {
/* columns rows colors chars-per-pixel */
"48 48 18 1 ",
"  c None",
". c #C7CFDD",
"X c #92A1B9",
"o c #100515",
"O c #E69C69",
"+ c #F6CA9F",
"@ c #131313",
"# c white",
"$ c #B4B4B4",
"% c gray52",
"& c #1A1932",
"* c #424C6E",
"= c #2A2F4E",
"- c #0E071B",
"; c #5D2C28",
": c #391F21",
"> c #BF6F4A",
", c #571C27",
/* pixels */
"                                                ",
"                                                ",
"                                                ",
"                                                ",
"                                                ",
"                                                ",
"                   ..                           ",
"                   X.XoXX..                     ",
"                    XoXX....                    ",
"                     XXXOOOO .                  ",
"                    .XXOX.+X.                   ",
"                   .XXOO@@+@                    ",
"                  ..XXXOOO+O                    ",
"                 ..XXXX.O...                    ",
"                 ..X#$XX.XXX.                   ",
"                ..X###$XXX..X                   ",
"                ..X####$XXX.X                   ",
"               ..XX###$#$XXXX                   ",
"               ..X###$%$#$XX&                   ",
"               XXX###$%%$%*=&                   ",
"               XX ##$%%$%**=&&                  ",
"                X ##$%$$%*==&&                  ",
"                  ##$%%%**==&&                  ",
"                  ##$*--*===&&                  ",
"                   #$--------&&                 ",
"                   ;:--===&&&::                 ",
"                   ;:XX===&&&::                 ",
"                   +OO====&&&&>                 ",
"                  ,++O**=&&&&&>                 ",
"                 ,,,==**=&&&&&                  ",
"                ,,,==***=&&&&&                  ",
"               ,,,===**==&&&&&                  ",
"             ,,,, ===**=&&&&&&                  ",
"            ,,,   ==***=&&&&&                   ",
"           ,,     ==**==&&&&&                   ",
"                   ==== &&&&                    ",
"                   ;;:   ::                     ",
"                   ;;:   ::                     ",
"                  ;;:    :::                    ",
"                  :::    ::::                   ",
"                                                ",
"                                                ",
"                                                ",
"                                                ",
"                                                ",
"                                                ",
"                                                ",
"                                                "
};
