/* XPM */
static char *c2298dce982447079c2842cc3f048599wSNocFAkiyq8kt6a[] = {
/* columns rows colors chars-per-pixel */
"48 48 4 1 ",
"  c #72751B",
". c #7F8226",
"X c #787B21",
"o c #656C17",
/* pixels */
"                                                ",
"                                                ",
"                                                ",
"                                                ",
"                                                ",
"                                                ",
"                     ..                         ",
"                      .XX   ..                  ",
"                      oXX  X.                   ",
"                       oo XXX                   ",
"                          XXo                   ",
"                          oo                    ",
"                                                ",
"                                                ",
"                                                ",
"                                                ",
"                             X.                 ",
"                              ..                ",
"                              XXX               ",
"                              oXXoXX..          ",
"                               ooXXX            ",
"                                 XXo            ",
"   X.    XX                      Xo             ",
"    ..  XX                                      ",
"    oXX XX                                      ",
"    oXX oo                                      ",
"     oo                                    .    ",
"                                          .     ",
"                                         XX     ",
"                                         XXo    ",
"                                         ooX.   ",
"                                           XX   ",
"                                           oo   ",
"                                                ",
"                      ..     .                  ",
"                       .XX X.                   ",
"                    X..oXoXXo                   ",
"                     .XXooXXo                   ",
"                     oXX  Xo                    ",
"                      oX                        ",
"                                                ",
"                                                ",
"                                                ",
"                                                ",
"                                                ",
"                                                ",
"                                                ",
"                                                "
};
