/* XPM */
static char *d6aaef9b3c1041c9df92c0dc728b562fuEGrMjeo6kKUZHI9[] = {
/* columns rows colors chars-per-pixel */
"48 48 35 1 ",
"  c #72751B",
". c #7C7B6E",
"X c #807F72",
"o c #848279",
"O c #88867D",
"+ c #64604B",
"@ c #87867D",
"# c #87857C",
"$ c #787B21",
"% c #7F8226",
"& c #86847B",
"* c #838178",
"= c #605C48",
"- c #89877F",
"; c #8D8B83",
": c #656C17",
"> c #878679",
", c #848377",
"< c #86847A",
"1 c #818074",
"2 c #8E8C84",
"3 c #87867C",
"4 c #8E8D84",
"5 c #8E8C83",
"6 c #8D8C83",
"7 c #7F8124",
"8 c #8D8B82",
"9 c #939189",
"0 c #686F16",
"q c #6C6852",
"w c #8C8A80",
"e c #8A8A7D",
"r c #8C8A81",
"t c #676455",
"y c #8D8C82",
/* pixels */
"                                                ",
"  ............    XXXXXXXXXXXX    ............  ",
" o............o  OXXXXXXXXXXXXO  o............o ",
" o............o  OXXXXXXXXXXXXO  o............o ",
" o............o  OXXXXXXXXXXXXO  o............o ",
" o............o  ++@XXXXXXXXXXO  o............o ",
" o............o   @XXXXXXXXXXXO  o............o ",
" o............o   @XXXXXXXXXXXO  o............o ",
" o............o  @XXXXXXXXXXXXO  o............o ",
" o............o  @XXXXXXXXXXXXO  o............o ",
" o............o  #XXXXXXXXXXXXO  o............o ",
" o............o  #XXXXXXXXXXXXO  o............o ",
" o............o  #XXXXXXXXXXX$%  o.$$.........o ",
" o............o  &XXXXXXXXXXXX%% *$$..........O ",
" =------------+  +;;;;;;;;;;;;:$$+$$---------;  ",
"  ======++===+    ++++++++++++:$$ ::+++=====++  ",
"                               ::               ",
"  XXXXXXXXXXXX    XXXXXXXXXXXX    >>>>>>>>>>>>  ",
" ,XXXXXXXXXXXX<  1XXXXXXXXXXXXO  2>>>>>>>>>>>>2 ",
" &XXXXXXXXXXXX#  #XXXXXXXXXXXXO  2>>>>>>>>>>>>2 ",
" #XXXXXXXXXXXX@  @XXXXXXXXXXXXO  2>>>>>>>>>>>>2 ",
" 3XXXXXXXXXXXX@  @XXXXXXXXXXXXO  4>>>>>>>>>>>>2 ",
" @XXXXXXXXXXXX@  @XXXXXXXXXXXXO  4>>>>>>>>>>>>2 ",
" OXXXXXXXXXXXX@  @XXXXXXXXXXXXO  4>>>>>>>>>>>>5 ",
" OXXXXXXXXXXXX@  @XXXXXXXXXXXXO  4>>>>>>>>>>>>5 ",
" OXXXXXXXXXXXX@  @XXXXXXXXXXXXO  4>>>>>>>>>>>>5 ",
" OXXXXXXXXXXXX#  @XXXXXXXXXXXXO  4>>>>>>>>>>>>5 ",
" OXXXXXXXXXXXX#  @XXXXXXXXXXXXO  4>>>>>>>>>>>>5 ",
" OXXXXXXXXXXXX#  @XXXXXXXXXXXXO  4>>>>$>>>>>>>6 ",
" OXXXXXXXXXXXX#  @XXXXXXXXXXXX#  4>>>77>>>>>>>8 ",
" +;;;;;;;;;;;;+  +;;;;;;;;;;;;+  +99$709999999q ",
"  ++++++++++++    ++++++++++++    +q$$qqqqqqqq  ",
"                                    00          ",
"  XXXXXXXXXXXX    >>>>>>>>>>>>    XXXXXXXXXXXX  ",
" OXXXXXXXXXXXXO  w>>>>>>>>>>>>e  @XXXXXXXXXXXXO ",
" OXXXXXXXXXXXXO  8>>>>>>>>>>>>r  OXXXXXXXXXXXXO ",
" OXXXXXXXXXXXXO  6>>>>>>>>>>>>8  OXXXXXXXXXXXXO ",
" OXXXXXXXXXXOtt  6>>>>>>>>>>>>y  OXXXXXXXXXXXXO ",
" OXXXXXXXXXXXO   6>>>>>>>>>>>>6  OXXXXXXXXXXXXO ",
" OXXXXXXXXXXXO   6>>>>>>>>>>>>5  OXXXXXXXXXXXXO ",
" OXXXXXXXXXXXXO  6>>>>>>>>>>>>5  OXXXXXXXXXXXXO ",
" OXXXXXXXXXXXXO  6>>>>>>>>>>>>5  OXXXXXXXXXXXXO ",
" OXXXXXXXXXXXXO  q6>>>>>>>>>>>5  OXXXXXXXXXXXX; ",
" OXXXXXXXXXXXXO   q6>>>>>>>>>>5  OXXXXXXXXXXX;+ ",
" OXXXXXXXXXXXXO    6>>>>>>>>>>5  @XXXXXXXXXX;+  ",
" OXXXXXXXXXXXXO 77 6>>>>>>>>>>5  #XXXXXXXXX;+   ",
" +;;;;;;;;;;;;;  7$$9999999999+  +;;;;;;;;;+    ",
"  +++++++++++++  0$0qqqqqqqqqq    +++++++++     "
};
